<svg xmlns="http://www.w3.org/2000/svg" width="256" height="256" viewBox="0 0 100 100"><rect width="100" height="100" rx="50" fill="#d9e8ee"></rect><path fill="#043f4f" d="M18.48 69.14L13.60 69.14L28.51 30.86L34.02 30.86L48.87 69.14L43.94 69.14L33.03 40.60L31.24 35.27L31.12 35.27L29.44 40.43L18.48 69.14ZM41.39 58.53L20.91 58.53L20.91 54.18L41.39 54.18L41.39 58.53ZM56.64 30.86L71.14 30.86Q77.00 30.86 80.54 33.88Q84.07 36.89 84.07 42.05L84.07 42.05Q84.07 47.22 80.51 50.09Q76.94 52.96 71.08 52.96L71.08 52.96L70.68 53.25L61.28 53.25L61.28 69.14L56.64 69.14L56.64 30.86ZM61.28 48.90L71.08 48.90Q75.20 48.90 77.20 47.19Q79.20 45.48 79.20 42.05L79.20 42.05Q79.20 38.63 77.20 36.92Q75.20 35.21 71.08 35.21L71.08 35.21L61.28 35.21L61.28 48.90ZM69.86 52.38L73.75 49.83L86.39 69.14L80.88 69.14L69.86 52.38Z"></path></svg>