<?xml version="1.0" encoding="UTF-8"?><svg id="a" xmlns="http://www.w3.org/2000/svg" width="100" height="100" viewBox="0 0 100 100"><defs><style>.b{fill:#55c8e8;}</style></defs><path class="b" d="M87.17,26.07H12.59V14.2c9.33,2.59,22.42,5.18,38.17,5.08,14.91-.09,27.36-2.57,36.41-5.08v11.86Z"/><path class="b" d="M87.17,43.3H12.59v-7.91c10.57,1.7,23.14,2.98,37.29,2.98,14.15,0,26.72-1.28,37.29-2.98v7.91Z"/><path class="b" d="M87.17,56.01H12.59v-3.39c11.4,1.04,23.88,1.7,37.29,1.7,11.45,0,23.94-.48,37.29-1.7v3.39Z"/><path class="b" d="M87.17,64.67H12.59v-1.69c11.79,.54,24.07,.84,36.82,.85,13.08,0,25.68-.3,37.76-.85v1.69Z"/></svg>